{"title":"czeshRIP","uid":6625418,"size":21978375027,"categoryP":"porn","categoryS":"other","magnet":"?xt=urn:btih:1b9de35b0883c718350f6101600ff33ab5f56d12&amp;dn=czeshRIP&amp;tr=udp%3A%2F%2Ftracker.openbittorrent.com%3A80&amp;tr=udp%3A%2F%2Fopen.demonii.com%3A1337&amp;tr=udp%3A%2F%2Ftracker.coppersurfer.tk%3A6969&amp;tr=udp%3A%2F%2Fexodus.desync.com%3A6969","seeders":0,"leechers":1,"uploader":null,"files":-1,"time":1314145929,"description":"CzechStreet.com SiteRip (aug 23, 2011)\n\nNo censorship and no fiction, this is the real streets of the Czech! Czech women and girls are in fact able to make money for absolutely anything.\nUnlike other websites with similar themes, where everything is recorded and arranged in advance, here you will see a real amateur from street.\nWelcome to the Czech Republic, the heart of Europe, where live the most beautiful girls in the world. They are beautiful, but they have deep pockets and a low standard of living and probably this is the reason that local women and girls show off for money unbelievable stunts on the street or in a park, public toilets, in the train, but everywhere, where only is possible to give a little fuck.\n\n#######################################\n\nVideo\nID                               : 1\nFormat                           : VC-1\nFormat profile                   : MP@ML\nCodec ID                         : WMV3\nCodec ID/Info                    : Windows Media Video 9\nCodec ID/Hint                    : WMV3\nDescription of the codec         : Windows Media Video 9 - Professional\nDuration                         : 42mn 31s\nBit rate mode                    : Constant\nBit rate                         : 2 000 Kbps\nWidth                            : 720 pixels\nHeight                           : 576 pixels\nDisplay aspect ratio             : 4:3\nFrame rate                       : 25.000 fps\nStandard                         : PAL\nBit depth                        : 8 bits\nScan type                        : Progressive\nCompression mode                 : Lossy\nBits/(Pixel*Frame)               : 0.193\nStream size                      : 608 MiB (95%)\nLanguage                         : Czech\n\nAudio\nID                               : 2\nFormat                           : WMA\nFormat version                   : Version 2\nCodec ID                         : 161\nCodec ID/Info                    : Windows Media Audio\nDescription of the codec         : Windows Media Audio 9.2 -  96 kbps, 44 kHz, stereo 1-pass CBR\nDuration                         : 42mn 31s\nBit rate mode                    : Constant\nBit rate                         : 96.0 Kbps\nChannel(s)                       : 2 channels\nSampling rate                    : 44.1 KHz\nBit depth                        : 16 bits\nStream size                      : 29.2 MiB (5%)\nLanguage                         : Czech\n\n#######################################","torrent":{"xt":"urn:btih:1b9de35b0883c718350f6101600ff33ab5f56d12","amp;dn":"czeshRIP","amp;tr":["udp%3A%2F%2Ftracker.openbittorrent.com%3A80","udp%3A%2F%2Fopen.demonii.com%3A1337","udp%3A%2F%2Ftracker.coppersurfer.tk%3A6969","udp%3A%2F%2Fexodus.desync.com%3A6969"],"infoHash":"1b9de35b0883c718350f6101600ff33ab5f56d12","infoHashBuffer":{"type":"Buffer","data":[27,157,227,91,8,131,199,24,53,15,97,1,96,15,243,58,181,245,109,18]},"announce":[],"urlList":[]}}